<svg width="50" height="50" viewBox="0 0 50 50" fill="none" xmlns="http://www.w3.org/2000/svg">
<g id="iconoir:healthcare">
<g id="Group">
<path id="Vector" d="M37.5 41.6667L45.4667 33.7C45.7012 33.4658 45.833 33.1481 45.8333 32.8167V21.875C45.8333 21.0462 45.5041 20.2513 44.918 19.6653C44.332 19.0792 43.5371 18.75 42.7083 18.75C41.8795 18.75 41.0847 19.0792 40.4986 19.6653C39.9126 20.2513 39.5833 21.0462 39.5833 21.875V31.25" stroke="white" stroke-width="5" stroke-linecap="round" stroke-linejoin="round"/>
<path id="Vector_2" d="M37.4998 33.3333L39.2873 31.5458C39.3813 31.4521 39.4557 31.3407 39.5065 31.218C39.5573 31.0954 39.5833 30.964 39.5832 30.8312C39.5829 30.6439 39.5305 30.4603 39.4319 30.301C39.3333 30.1417 39.1924 30.013 39.0248 29.9292L38.1019 29.4688C37.32 29.0778 36.435 28.9427 35.572 29.0825C34.7091 29.2223 33.912 29.6301 33.2936 30.2479L31.429 32.1125C30.6476 32.8937 30.2084 33.9534 30.2082 35.0583V41.6667M12.4998 41.6667L4.53317 33.7C4.29868 33.4658 4.1668 33.1481 4.1665 32.8167V21.875C4.1665 21.0462 4.49574 20.2513 5.0818 19.6653C5.66785 19.0792 6.4627 18.75 7.2915 18.75C8.12031 18.75 8.91516 19.0792 9.50121 19.6653C10.0873 20.2513 10.4165 21.0462 10.4165 21.875V31.25" stroke="white" stroke-width="5" stroke-linecap="round" stroke-linejoin="round"/>
<path id="Vector_3" d="M12.4998 33.3335L10.7123 31.546C10.6185 31.4521 10.5441 31.3407 10.4933 31.2181C10.4426 31.0955 10.4165 30.9641 10.4165 30.8314C10.4165 30.4502 10.6332 30.1022 10.9748 29.9293L11.8978 29.4689C12.6797 29.078 13.5647 28.9428 14.4276 29.0827C15.2906 29.2225 16.0877 29.6302 16.7061 30.2481L18.5707 32.1127C19.3521 32.8939 19.7913 33.9535 19.7915 35.0585V41.6668M28.4728 25.0002H21.5269V20.1397H16.6665V13.1939H21.5269V8.3335H28.4728V13.1939H33.3332V20.1397H28.4728V25.0002Z" stroke="white" stroke-width="5" stroke-linecap="round" stroke-linejoin="round"/>
</g>
</g>
</svg>
