<svg width="60" height="60" viewBox="0 0 60 60" fill="none" xmlns="http://www.w3.org/2000/svg">
<g id="material-symbols-light:digital-wellbeing">
<path id="Vector" d="M32.5016 17.5767C30.2799 17.5767 28.3957 16.9014 26.8491 15.5509C25.3044 14.202 24.532 12.5576 24.532 10.6176C24.532 8.67753 25.3044 7.03225 26.8491 5.68171C28.3957 4.33287 30.2799 3.65845 32.5016 3.65845C34.7234 3.65845 36.6075 4.33287 38.1542 5.68171C39.6989 7.03225 40.4712 8.67753 40.4712 10.6176C40.4712 12.5576 39.6989 14.202 38.1542 15.5509C36.6075 16.9014 34.7234 17.5767 32.5016 17.5767ZM32.5016 46.5853L16.5625 32.6696C15.8154 32.0156 15.2551 31.2639 14.8816 30.4145C14.5061 29.5651 14.3184 28.6503 14.3184 27.6701C14.3184 25.7198 15.0888 24.072 16.6296 22.7266C18.1665 21.3845 20.0526 20.7135 22.288 20.7135C23.3618 20.7135 24.3638 20.8893 25.2937 21.241C26.2236 21.5943 27.0816 22.1141 27.8675 22.8005L32.5016 26.847L37.1357 22.8005C37.8847 22.1464 38.7339 21.6351 39.6833 21.2664C40.6308 20.8961 41.6414 20.7109 42.7153 20.7109C44.9487 20.7109 46.8358 21.3837 48.3766 22.7291C49.9135 24.0729 50.682 25.7207 50.682 27.6726C50.682 28.6511 50.4952 29.5651 50.1217 30.4145C49.7482 31.2639 49.1879 32.0156 48.4408 32.6696L32.5016 46.5853Z" fill="white"/>
</g>
</svg>
