<svg width="50" height="51" viewBox="0 0 50 51" fill="none" xmlns="http://www.w3.org/2000/svg">
<g id="vaadin:specialist" clip-path="url(#clip0_300_1146)">
<path id="Vector" d="M12.8123 25.5C13.4373 27.375 13.7498 28.9375 13.7498 28.9375C16.2498 33 19.3748 32.375 19.3748 34.5625C19.3748 35.5 18.7498 36.4375 17.8123 36.75L24.9998 42.375L32.1873 37.0625C31.2498 36.4375 30.6248 35.8125 30.6248 34.875C30.6248 32.375 33.7498 33.3125 36.2498 29.25C36.2498 29.25 36.8748 28 37.1873 25.8125C38.1248 22.375 39.0623 16.125 38.7498 13H34.0623C34.0623 12.0625 34.3748 11.125 34.3748 9.875H37.8123C36.8748 5.5 34.6873 3.625 30.9373 2.6875C29.3748 1.4375 27.1873 0.5 24.9998 0.5C22.8123 0.5 20.6248 1.4375 19.0623 2.6875C15.3123 3.625 13.4373 5.5 12.1873 9.875H15.6248C15.6248 11.125 15.9373 12.0625 16.2498 13H11.2498C10.9373 16.125 11.8748 22.375 12.8123 25.5ZM34.9998 27.0625L34.0623 28L32.4998 29.875C31.2498 31.4375 29.9998 32.375 28.1248 32.6875L26.8748 33C25.6248 33.3125 24.0623 33.3125 22.4998 33L21.2498 32.6875C19.3748 32.0625 17.8123 31.125 16.5623 29.25L15.9373 28L14.9998 27.0625L12.8123 25.5L22.4998 22.6875C24.0623 22.375 25.6248 22.0625 27.1873 22.6875L37.1873 25.5L34.9998 27.0625ZM18.7498 9.875C18.7498 6.4375 21.5623 3.625 24.9998 3.625C28.4373 3.625 31.2498 6.4375 31.2498 9.875C31.2498 13.3125 28.4373 16.125 24.9998 16.125C21.5623 16.125 18.7498 13.3125 18.7498 9.875Z" fill="white"/>
<path id="Vector_2" d="M48.4375 44.875C44.375 37.375 40.3125 38.625 36.25 38H35.9375L25 46.125L14.0625 38H13.75C9.375 38.3125 5.625 37.375 1.5625 44.875C0.9375 46.125 0.3125 48.3125 0 50.5H50C49.6875 48.3125 49.0625 46.125 48.4375 44.875Z" fill="white"/>
</g>
<defs>
<clipPath id="clip0_300_1146">
<rect width="50" height="50" fill="white" transform="translate(0 0.5)"/>
</clipPath>
</defs>
</svg>
