<svg width="42" height="50" viewBox="0 0 42 50" fill="none" xmlns="http://www.w3.org/2000/svg">
<path id="Vector" d="M34.7539 33.8975V50H14.5231V44.1922H11.5511C7.42381 44.1922 4.07568 40.8437 4.07568 36.7085V31.4064H1.53363C1.12784 31.406 0.738717 31.2448 0.451332 30.9582C0.163946 30.6715 0.00167749 30.2827 0 29.8766C0 29.6639 0.0380831 29.4622 0.114249 29.282L4.07568 19.3009C4.07568 19.3009 4.48507 15.1665 4.85796 13.5836C6.50743 6.46196 14.4414 0 23.045 0C33.5115 0 42 8.49422 42 18.9762C42 25.0294 39.166 30.4244 34.7539 33.8975ZM8.73291 18.8484C8.17358 18.8499 7.63764 19.0731 7.24251 19.4693C6.84738 19.8654 6.62527 20.402 6.62486 20.9617C6.62359 21.5226 6.84488 22.0612 7.24012 22.459C7.63537 22.8569 8.17227 23.0815 8.73291 23.0836C9.01162 23.0838 9.28764 23.0291 9.54521 22.9226C9.80279 22.8161 10.0369 22.6598 10.2341 22.4628C10.4313 22.2657 10.5878 22.0318 10.6947 21.7742C10.8015 21.5166 10.8566 21.2405 10.8568 20.9617C10.8545 20.3999 10.6296 19.8619 10.2315 19.4657C9.83332 19.0696 9.29441 18.8476 8.73291 18.8484ZM27.0992 14.2441C27.0992 14.7738 27.3095 15.2818 27.6839 15.6564C28.0583 16.031 28.566 16.2414 29.0954 16.2414C29.6248 16.2414 30.1326 16.031 30.5069 15.6564C30.8813 15.2818 31.0916 14.7738 31.0916 14.2441C31.0916 13.7144 30.8813 13.2063 30.5069 12.8318C30.1326 12.4572 29.6248 12.2468 29.0954 12.2468C28.566 12.2468 28.0583 12.4572 27.6839 12.8318C27.3095 13.2063 27.0992 13.7144 27.0992 14.2441ZM12.0112 12.0753C12.0113 12.3383 12.0632 12.5988 12.164 12.8418C12.2647 13.0847 12.4124 13.3055 12.5984 13.4913C12.7845 13.6772 13.0053 13.8245 13.2483 13.9249C13.4913 14.0254 13.7516 14.0769 14.0145 14.0766C14.5457 14.0766 15.055 13.8655 15.4305 13.4897C15.8061 13.114 16.0171 12.6043 16.0171 12.0729C16.0171 11.5415 15.8061 11.0319 15.4305 10.6561C15.055 10.2803 14.5457 10.0692 14.0145 10.0692C13.7513 10.0692 13.4907 10.1211 13.2475 10.222C13.0044 10.3228 12.7835 10.4706 12.5974 10.6569C12.4114 10.8432 12.2638 11.0643 12.1633 11.3077C12.0627 11.5511 12.011 11.8119 12.0112 12.0753ZM35.7068 16.4677L38.6082 15.9683V13.174L35.8131 12.6921C35.6803 12.1875 35.4914 11.6994 35.2498 11.237L36.9437 8.83002L34.9784 6.8565L32.6562 8.49343C32.3061 8.28556 31.9384 8.10891 31.5573 7.96552C31.4486 7.92582 31.3399 7.89645 31.2312 7.86311L30.725 4.96158H27.9331L27.4618 7.75594C26.9544 7.88777 26.4638 8.07742 25.9996 8.32116L23.5972 6.62232L21.6161 8.5998L23.2616 10.9139C23.0518 11.2668 22.8744 11.6379 22.7316 12.0229C22.6895 12.1317 22.6626 12.2404 22.6277 12.3492L20.2308 12.7604V11.4283L18.4004 11.1139C18.3161 10.7962 18.1957 10.4891 18.0418 10.1986L19.1637 8.6125L17.8673 7.31773L16.3408 8.39499C16.1166 8.26046 15.8815 8.1452 15.6378 8.05046C15.5736 8.02664 15.5069 8.02108 15.4411 8.00044L15.1094 6.08964H13.287L12.9681 7.92344C12.6467 8.00838 12.3413 8.13381 12.0477 8.28702L10.4593 7.16849L9.16928 8.46326L10.2483 9.99063C10.1134 10.2137 9.99893 10.4486 9.90634 10.6924C9.88175 10.7583 9.86667 10.8234 9.84604 10.8917L7.94665 11.2179V13.0509L9.78971 13.3669C9.87381 13.682 9.98965 13.9877 10.1388 14.2782L9.01774 15.8659L10.3094 17.1623L11.8414 16.0827C12.0644 16.2136 12.2953 16.3351 12.546 16.4288C12.6102 16.4534 12.6769 16.4581 12.7411 16.4804L13.0728 18.3912L14.8944 18.3896L15.2142 16.5582C15.5322 16.4718 15.8398 16.3507 16.1313 16.197L17.7134 17.3131L19.0098 16.0191L17.9323 14.4918C18.0617 14.2703 18.1815 14.0425 18.2727 13.794C18.2989 13.7281 18.3036 13.659 18.3267 13.5915L19.7325 13.3486V15.6421L22.5229 16.1223C22.6546 16.632 22.8466 17.121 23.0894 17.5854L21.3955 19.9836L23.3647 21.9595L25.6854 20.3226C26.0321 20.5251 26.3947 20.7045 26.785 20.8481C26.8937 20.8894 27.0024 20.9172 27.1111 20.9521L27.6173 23.8553H30.0403L29.8404 25.0183C29.4905 25.0976 29.1605 25.2358 28.8495 25.4104L27.6911 24.5912L26.7827 25.5009L27.5665 26.6115C27.4317 26.8259 27.3142 27.0537 27.2246 27.2998C27.1889 27.3982 27.1746 27.4967 27.1468 27.5951L25.7409 27.8356V29.1177L27.0865 29.3511C27.1643 29.7036 27.3023 30.033 27.4785 30.3466L26.6597 31.504L27.565 32.4162L28.6749 31.6287C28.8891 31.7652 29.1184 31.8827 29.3652 31.974C29.4635 32.0105 29.5635 32.024 29.6643 32.0518L29.8952 33.4514H31.1813L31.4161 32.1105C31.7684 32.0327 32.0984 31.8946 32.411 31.7184L33.563 32.5368L34.4746 31.6263L33.6908 30.522C33.8288 30.3061 33.9478 30.0759 34.0399 29.8274C34.074 29.7306 34.0883 29.6321 34.116 29.5337L35.51 29.2932V28.0063L34.1716 27.7769C34.0911 27.4282 33.959 27.0934 33.7796 26.7838L34.596 25.624L33.686 24.715L32.5776 25.4946C32.3611 25.3558 32.1306 25.2403 31.8898 25.15C31.7953 25.1159 31.6985 25.1016 31.6018 25.0762L31.3566 23.6766H30.4378L30.8813 21.0585C31.3873 20.9278 31.8763 20.739 32.3388 20.4957L34.7444 22.1945L36.716 20.221L35.0768 17.899C35.2807 17.5513 35.4616 17.1869 35.6068 16.7963C35.6473 16.6868 35.675 16.578 35.71 16.4693L35.7068 16.4677ZM28.6257 28.6485C28.6264 29.1801 28.8379 29.6897 29.2138 30.0652C29.5898 30.4408 30.0994 30.6516 30.6306 30.6514C30.893 30.6509 31.1526 30.5987 31.3947 30.4977C31.6369 30.3968 31.8568 30.2491 32.0418 30.0631C32.2269 29.8771 32.3736 29.6565 32.4734 29.4137C32.5732 29.171 32.6243 28.911 32.6236 28.6485C32.6242 28.3862 32.573 28.1263 32.4731 27.8837C32.3733 27.6411 32.2266 27.4206 32.0415 27.2348C31.8564 27.0489 31.6366 26.9014 31.3945 26.8006C31.1524 26.6998 30.8928 26.6477 30.6306 26.6472C30.0996 26.6468 29.5901 26.8574 29.2142 27.2327C28.8382 27.6079 28.6266 28.1172 28.6257 28.6485Z" fill="white"/>
</svg>
